<svg width="56" height="57" viewBox="0 0 56 57" fill="none" xmlns="http://www.w3.org/2000/svg">
<path fill-rule="evenodd" clip-rule="evenodd" d="M46.7796 29.3204C47.3045 29.8455 47.5994 30.5575 47.5994 31.3C47.5994 32.0424 47.3045 32.7545 46.7796 33.2796L29.9796 50.0796C29.4545 50.6045 28.7425 50.8994 28 50.8994C27.2575 50.8994 26.5455 50.6045 26.0204 50.0796L9.22041 33.2796C8.95298 33.0213 8.73967 32.7123 8.59292 32.3707C8.44618 32.0291 8.36894 31.6617 8.36571 31.2899C8.36248 30.9181 8.43332 30.5494 8.57411 30.2053C8.71489 29.8612 8.9228 29.5486 9.1857 29.2857C9.4486 29.0228 9.76123 28.8149 10.1053 28.6741C10.4494 28.5333 10.8181 28.4624 11.1899 28.4657C11.5617 28.4689 11.9291 28.5461 12.2707 28.6929C12.6124 28.8396 12.9213 29.0529 13.1796 29.3204L25.2 41.3408V8.89998C25.2 8.15737 25.495 7.44518 26.0201 6.92008C26.5452 6.39497 27.2574 6.09998 28 6.09998C28.7426 6.09998 29.4548 6.39497 29.9799 6.92008C30.505 7.44518 30.8 8.15737 30.8 8.89998V41.3408L42.8204 29.3204C43.3455 28.7955 44.0575 28.5006 44.8 28.5006C45.5425 28.5006 46.2545 28.7955 46.7796 29.3204Z" fill="white"/>
</svg>
