<svg width="51" height="51" viewBox="0 0 51 51" fill="none" xmlns="http://www.w3.org/2000/svg">
<path d="M36.0193 0.591797C35.2209 0.591797 34.4224 0.702266 33.9193 0.869609C33.7006 0.945078 33.5693 1.02711 33.5037 1.07195V6.93555H38.5349V5.8418L36.8943 4.20117L38.5349 2.56055V1.07195C38.4693 1.02711 38.3381 0.945078 38.1193 0.869609C37.6162 0.702266 36.8068 0.591797 36.0193 0.591797ZM30.8349 3.1643C27.4224 3.1468 24.4912 3.90805 21.9865 5.27305C18.6396 7.09414 16.0912 9.9543 14.0349 13.323C11.5412 17.4246 9.75838 22.2918 8.20853 27.1809C8.26978 27.1809 8.33212 27.1918 8.39447 27.1918C8.66463 27.2137 8.92712 27.2574 9.20056 27.3449C9.52869 27.4434 9.83494 27.5746 10.1084 27.7496C11.6506 22.9262 13.3787 18.2012 15.7193 14.3512C17.6443 11.1793 19.974 8.60898 22.9271 7.00227C25.3115 5.70617 28.1115 5.00945 31.5349 5.14617V3.17961C31.2943 3.16867 31.0646 3.16539 30.8349 3.1643ZM31.7537 8.9043V10.4355H40.2849V8.9043H31.7537ZM29.5771 12.4043C28.4068 14.2418 26.3287 15.4449 24.5896 16.7902C22.6865 18.2777 21.2537 19.7324 21.2537 21.9199C21.2537 28.7996 22.5334 33.459 23.824 37.123C24.9724 40.3715 26.1865 42.8543 26.449 45.4355H45.5896C45.8521 42.8543 47.0662 40.3715 48.2146 37.123C49.5052 33.459 50.7849 28.7996 50.7849 21.9199C50.7849 19.7324 49.3521 18.2777 47.449 16.7902C45.7099 15.4449 43.6318 14.2418 42.4615 12.4043H29.5771ZM8.08603 29.1277C7.77431 29.1277 7.52056 29.2152 7.24166 29.3902C6.81837 29.6527 6.36556 30.1559 5.95431 30.8559C5.68634 31.3043 5.44353 31.8184 5.21931 32.3762C5.51244 32.2887 5.81212 32.234 6.11619 32.2121C6.63134 32.1684 7.16072 32.2121 7.69775 32.3762C8.55525 32.6387 9.23337 33.1199 9.76931 33.7543C9.88962 33.1637 9.97712 32.5949 9.999 32.059C10.0318 31.2496 9.93337 30.5824 9.71462 30.123C9.50681 29.6746 9.23337 29.4121 8.63181 29.2262C8.48853 29.1824 8.34853 29.1605 8.22275 29.1387C8.17572 29.1387 8.12978 29.1277 8.08494 29.1277H8.08603ZM6.45634 34.159C6.37978 34.159 6.30322 34.159 6.22775 34.1699C5.31447 34.2574 4.39025 34.8371 3.48681 35.7996C2.28369 37.0902 1.28291 38.9715 0.830094 40.4918C0.376187 42.0121 0.184781 44.134 0.488844 45.8621C0.792906 47.5902 1.494 48.7934 2.70041 49.1543C3.90462 49.5043 5.14494 48.8918 6.34697 47.6121C7.55009 46.3215 8.54431 44.4402 9.00369 42.9199C9.45212 41.4105 9.62712 39.2777 9.30994 37.5387C8.99275 35.7996 8.28072 34.6074 7.13666 34.2574C6.91134 34.1918 6.68384 34.159 6.45634 34.159ZM25.5193 47.4043C24.8849 47.4043 24.5459 47.6012 24.2834 47.8965C24.0318 48.1809 23.8787 48.6074 23.8787 49.0449C23.8787 49.4824 24.0318 49.909 24.2834 50.1934C24.5459 50.4887 24.8849 50.6855 25.5193 50.6855H46.5193C47.1537 50.6855 47.4927 50.4887 47.7552 50.1934C48.0068 49.909 48.1599 49.4824 48.1599 49.0449C48.1599 48.6074 48.0068 48.1809 47.7552 47.8965C47.4927 47.6012 47.1537 47.4043 46.5193 47.4043H25.5193Z" fill="white"/>
</svg>
